<svg width="2599" height="2598" xmlns="http://www.w3.org/2000/svg" xmlns:xlink="http://www.w3.org/1999/xlink" xml:space="preserve" overflow="hidden"><g><path d="M214.5 1299.5C214.5 1123.87 356.873 981.5 532.5 981.5 708.126 981.5 850.5 1123.87 850.5 1299.5 850.5 1475.13 708.126 1617.5 532.5 1617.5 356.873 1617.5 214.5 1475.13 214.5 1299.5Z" stroke="#747474" stroke-width="6.875" stroke-miterlimit="8" fill="#747474" fill-rule="evenodd"/><path d="M214.5 473C214.5 297.097 356.873 154.5 532.5 154.5 708.126 154.5 850.5 297.097 850.5 473 850.5 648.903 708.126 791.5 532.5 791.5 356.873 791.5 214.5 648.903 214.5 473Z" stroke="#747474" stroke-width="6.875" stroke-miterlimit="8" fill="#747474" fill-rule="evenodd"/><path d="M214.5 2126C214.5 1950.1 356.873 1807.5 532.5 1807.5 708.126 1807.5 850.5 1950.1 850.5 2126 850.5 2301.9 708.126 2444.5 532.5 2444.5 356.873 2444.5 214.5 2301.9 214.5 2126Z" stroke="#747474" stroke-width="6.875" stroke-miterlimit="8" fill="#747474" fill-rule="evenodd"/><path d="M1048.5 473C1048.5 297.097 1191.1 154.5 1367 154.5L2067 154.5C2242.9 154.5 2385.5 297.097 2385.5 473L2385.5 473C2385.5 648.903 2242.9 791.5 2067 791.5L1367 791.5C1191.1 791.5 1048.5 648.903 1048.5 473Z" stroke="#747474" stroke-width="6.875" stroke-miterlimit="8" fill="#747474" fill-rule="evenodd"/><path d="M1048.5 1300C1048.5 1124.1 1191.1 981.5 1367 981.5L2067 981.5C2242.9 981.5 2385.5 1124.1 2385.5 1300L2385.5 1300C2385.5 1475.9 2242.9 1618.5 2067 1618.5L1367 1618.5C1191.1 1618.5 1048.5 1475.9 1048.5 1300Z" stroke="#747474" stroke-width="6.875" stroke-miterlimit="8" fill="#747474" fill-rule="evenodd"/><path d="M1048.5 2126C1048.5 1950.1 1191.1 1807.5 1367 1807.5L2067 1807.5C2242.9 1807.5 2385.5 1950.1 2385.5 2126L2385.5 2126C2385.5 2301.9 2242.9 2444.5 2067 2444.5L1367 2444.5C1191.1 2444.5 1048.5 2301.9 1048.5 2126Z" stroke="#747474" stroke-width="6.875" stroke-miterlimit="8" fill="#747474" fill-rule="evenodd"/></g></svg>